HIERARCHY
ROOT Hips
{
    OFFSET   0.000000   0.000000   0.000000
    CHANNELS 6 Xposition Yposition Zposition Zrotation Xrotation Yrotation
    JOINT Chest
    {
        OFFSET   0.000000   8.007240   0.000000
        CHANNELS 3 Zrotation Xrotation Yrotation
        JOINT Chest2
        {
            OFFSET   0.000000  22.077100   0.000000
            CHANNELS 3 Zrotation Xrotation Yrotation
            JOINT Neck
            {
                OFFSET   0.000000  23.254800   0.000000
                CHANNELS 3 Zrotation Xrotation Yrotation
                JOINT Head
                {
                    OFFSET   0.000000  14.370000   1.956600
                    CHANNELS 3 Zrotation Xrotation Yrotation
                    End Site
                    {
                        OFFSET   0.000000  19.566000   0.000000
                    }
                }
            }
            JOINT LeftCollar
            {
                OFFSET   3.911900  19.017000  -0.467064
                CHANNELS 3 Zrotation Xrotation Yrotation
                JOINT LeftShoulder
                {
                    OFFSET  10.383700   0.000000   0.000000
                    CHANNELS 3 Zrotation Xrotation Yrotation
                    JOINT LeftElbow
                    {
                        OFFSET  26.662100   0.001476   0.000517
                        CHANNELS 3 Zrotation Xrotation Yrotation
                        JOINT LeftWrist
                        {
                            OFFSET  28.869000  -0.000025  -0.000106
                            CHANNELS 3 Zrotation Xrotation Yrotation
                            JOINT LeftFinger0
                            {
                                OFFSET   2.044660  -2.323460   3.252850
                                CHANNELS 3 Zrotation Xrotation Yrotation
                                JOINT LeftFinger01
                                {
                                    OFFSET   3.088130   0.000000   0.000000
                                    CHANNELS 3 Zrotation Xrotation Yrotation
                                    JOINT LeftFinger02
                                    {
                                        OFFSET   2.639460   0.000000   0.000000
                                        CHANNELS 3 Zrotation Xrotation Yrotation
                                        End Site
                                        {
                                            OFFSET   2.582190   0.000000   0.000000
                                        }
                                    }
                                }
                            }
                            JOINT LeftFinger1
                            {
                                OFFSET   8.364480   0.000000   3.252850
                                CHANNELS 3 Zrotation Xrotation Yrotation
                                JOINT LeftFinger11
                                {
                                    OFFSET   4.646930   0.000000   0.000000
                                    CHANNELS 3 Zrotation Xrotation Yrotation
                                    JOINT LeftFinger12
                                    {
                                        OFFSET   2.323460   0.000000   0.000000
                                        CHANNELS 3 Zrotation Xrotation Yrotation
                                        End Site
                                        {
                                            OFFSET   2.273050   0.000000   0.000000
                                        }
                                    }
                                }
                            }
                            JOINT LeftFinger2
                            {
                                OFFSET   8.364490   0.000015   1.078090
                                CHANNELS 3 Zrotation Xrotation Yrotation
                                JOINT LeftFinger21
                                {
                                    OFFSET   5.111620   0.000000   0.000000
                                    CHANNELS 3 Zrotation Xrotation Yrotation
                                    JOINT LeftFinger22
                                    {
                                        OFFSET   2.788160   0.000016   0.000000
                                        CHANNELS 3 Zrotation Xrotation Yrotation
                                        End Site
                                        {
                                            OFFSET   2.727660   0.000000   0.000000
                                        }
                                    }
                                }
                            }
                            JOINT LeftFinger3
                            {
                                OFFSET   7.899780   0.000017  -1.078090
                                CHANNELS 3 Zrotation Xrotation Yrotation
                                JOINT LeftFinger31
                                {
                                    OFFSET   4.646930   0.000000   0.000000
                                    CHANNELS 3 Zrotation Xrotation Yrotation
                                    JOINT LeftFinger32
                                    {
                                        OFFSET   2.323470   0.000000   0.000000
                                        CHANNELS 3 Zrotation Xrotation Yrotation
                                        End Site
                                        {
                                            OFFSET   2.273050   0.000000   0.000000
                                        }
                                    }
                                }
                            }
                            JOINT LeftFinger4
                            {
                                OFFSET   7.435090   0.000000  -3.252850
                                CHANNELS 3 Zrotation Xrotation Yrotation
                                JOINT LeftFinger41
                                {
                                    OFFSET   3.717550   0.000000   0.000000
                                    CHANNELS 3 Zrotation Xrotation Yrotation
                                    JOINT LeftFinger42
                                    {
                                        OFFSET   1.858770   0.000000   0.000000
                                        CHANNELS 3 Zrotation Xrotation Yrotation
                                        End Site
                                        {
                                            OFFSET   1.818440   0.000000   0.000000
                                        }
                                    }
                                }
                            }
                        }
                    }
                }
            }
            JOINT RightCollar
            {
                OFFSET  -3.911900  19.017000  -0.467063
                CHANNELS 3 Zrotation Xrotation Yrotation
                JOINT RightShoulder
                {
                    OFFSET -10.383700   0.000019   0.000000
                    CHANNELS 3 Zrotation Xrotation Yrotation
                    JOINT RightElbow
                    {
                        OFFSET -26.662100   0.001175   0.000102
                        CHANNELS 3 Zrotation Xrotation Yrotation
                        JOINT RightWrist
                        {
                            OFFSET -28.869000   0.000016  -0.000079
                            CHANNELS 3 Zrotation Xrotation Yrotation
                            JOINT RightFinger0
                            {
                                OFFSET  -2.044660  -2.323490   3.252850
                                CHANNELS 3 Zrotation Xrotation Yrotation
                                JOINT RightFinger01
                                {
                                    OFFSET  -3.088140   0.000000   0.000000
                                    CHANNELS 3 Zrotation Xrotation Yrotation
                                    JOINT RightFinger02
                                    {
                                        OFFSET  -2.639460   0.000000   0.000000
                                        CHANNELS 3 Zrotation Xrotation Yrotation
                                        End Site
                                        {
                                            OFFSET  -2.582190   0.000000   0.000000
                                        }
                                    }
                                }
                            }
                            JOINT RightFinger1
                            {
                                OFFSET  -8.364480   0.000000   3.252850
                                CHANNELS 3 Zrotation Xrotation Yrotation
                                JOINT RightFinger11
                                {
                                    OFFSET  -4.646930   0.000000   0.000000
                                    CHANNELS 3 Zrotation Xrotation Yrotation
                                    JOINT RightFinger12
                                    {
                                        OFFSET  -2.323470   0.000000   0.000000
                                        CHANNELS 3 Zrotation Xrotation Yrotation
                                        End Site
                                        {
                                            OFFSET  -2.273050   0.000000   0.000000
                                        }
                                    }
                                }
                            }
                            JOINT RightFinger2
                            {
                                OFFSET  -8.364480   0.000000   1.078090
                                CHANNELS 3 Zrotation Xrotation Yrotation
                                JOINT RightFinger21
                                {
                                    OFFSET  -5.111620   0.000000   0.000000
                                    CHANNELS 3 Zrotation Xrotation Yrotation
                                    JOINT RightFinger22
                                    {
                                        OFFSET  -2.788160   0.000000   0.000000
                                        CHANNELS 3 Zrotation Xrotation Yrotation
                                        End Site
                                        {
                                            OFFSET  -2.727660   0.000000   0.000000
                                        }
                                    }
                                }
                            }
                            JOINT RightFinger3
                            {
                                OFFSET  -7.899780   0.000000  -1.078090
                                CHANNELS 3 Zrotation Xrotation Yrotation
                                JOINT RightFinger31
                                {
                                    OFFSET  -4.646930   0.000000   0.000000
                                    CHANNELS 3 Zrotation Xrotation Yrotation
                                    JOINT RightFinger32
                                    {
                                        OFFSET  -2.323470   0.000000   0.000000
                                        CHANNELS 3 Zrotation Xrotation Yrotation
                                        End Site
                                        {
                                            OFFSET  -2.273050   0.000000   0.000000
                                        }
                                    }
                                }
                            }
                            JOINT RightFinger4
                            {
                                OFFSET  -7.435090   0.000000  -3.252850
                                CHANNELS 3 Zrotation Xrotation Yrotation
                                JOINT RightFinger41
                                {
                                    OFFSET  -3.717550   0.000000   0.000000
                                    CHANNELS 3 Zrotation Xrotation Yrotation
                                    JOINT RightFinger42
                                    {
                                        OFFSET  -1.858770   0.000000   0.000000
                                        CHANNELS 3 Zrotation Xrotation Yrotation
                                        End Site
                                        {
                                            OFFSET  -1.818440   0.000000   0.000000
                                        }
                                    }
                                }
                            }
                        }
                    }
                }
            }
        }
    }
    JOINT LeftHip
    {
        OFFSET   9.783040   0.000000   0.000000
        CHANNELS 3 Zrotation Xrotation Yrotation
        JOINT LeftKnee
        {
            OFFSET   0.000032 -41.789100  -0.002222
            CHANNELS 3 Zrotation Xrotation Yrotation
            JOINT LeftAnkle
            {
                OFFSET   0.000087 -41.133200  -0.000135
                CHANNELS 3 Zrotation Xrotation Yrotation
                JOINT LeftToe
                {
                    OFFSET   0.000000  -6.358960  14.674500
                    CHANNELS 3 Zrotation Xrotation Yrotation
                    End Site
                    {
                        OFFSET   0.000000   0.000000   3.913200
                    }
                }
            }
        }
    }
    JOINT RightHip
    {
        OFFSET  -9.783040   0.000000   0.000000
        CHANNELS 3 Zrotation Xrotation Yrotation
        JOINT RightKnee
        {
            OFFSET   0.000047 -41.789100  -0.000896
            CHANNELS 3 Zrotation Xrotation Yrotation
            JOINT RightAnkle
            {
                OFFSET  -0.000117 -41.133300  -0.000248
                CHANNELS 3 Zrotation Xrotation Yrotation
                JOINT RightToe
                {
                    OFFSET   0.000000  -6.358970  14.674500
                    CHANNELS 3 Zrotation Xrotation Yrotation
                    End Site
                    {
                        OFFSET   0.000000   0.000000   3.913200
                    }
                }
            }
        }
    }
}
MOTION
Frames: 4
Frame Time:   0.016667
 -1.919840  89.532300  -0.347979  -2.299180 -13.371900   0.085320   2.735110   7.825160   0.015277   5.546880  15.642000  -0.355594   0.570073  -3.984810   0.040662   0.949332  -8.078080   5.646710  -9.648750  -4.709850  -4.214830 -60.830800   0.625286 -60.157300  -5.102050 -18.266000 -80.648500   1.114330 -29.076700 -10.552300  45.935100  45.389200 -90.566100  12.659500  -0.003035   0.001402  11.329800  -0.002475   0.000419  -9.932240   3.623660 -19.815800  -8.644700  -0.001284  -0.001085  -6.051270  -0.000883  -0.000917 -13.614900   2.159630  -8.843550 -13.782100  -0.001131  -0.001423  -9.178900  -0.000721  -0.014968 -10.243400   0.420015  -2.323880 -10.251500  -0.000053  -0.000137  -6.827510   0.000353  -0.000819 -18.307800  -5.882440  17.214100 -28.799000  -0.001915  -0.000629 -19.180100  -0.000604   0.000052   2.332720  -5.743690  12.448400  51.849100 -10.501900  56.569300 -17.285400 -23.925200  73.203600 -10.765700 -27.648400  24.811100 -57.982300  42.073400  82.895900  -4.672200  -0.001419  -0.000125  -7.336100  -0.002310  -0.001964  30.143700   8.766620  14.709100  25.590800   0.007075  -0.001466  17.913600   0.011571  -0.002945  17.335000   1.400390   4.474050  17.386900   0.004798   0.000707  11.579600   0.003869   0.000290  15.358600   1.243870   4.520080  15.408100  -0.000410   0.001114  10.261800   0.009427   0.005984  21.021500  -1.962790  -5.086960  31.666900   0.000909   0.001605  21.090100   0.001577   0.001231   2.977130  17.114900   2.237660   2.262310   0.565529   7.749740  -3.004880  -3.054550   2.776020  -0.000000   0.000000   0.000000   3.815000  12.234400  -3.704430   1.186980   5.978360  -6.363750  -3.014940  -4.926980  -1.464610  -0.000000   0.000000   0.000000
 -1.945830  89.526200  -0.339132  -2.269140 -13.280300   0.106327   2.727960   7.785220  -0.003586   5.534200  15.561200  -0.390721   0.566551  -3.958800   0.040058   0.944412  -8.025380   5.688890  -9.644210  -4.713000  -4.197430 -60.784800   0.542906 -60.107400  -5.119220 -18.465300 -80.631200   0.977419 -28.691000 -10.517800  46.056700  45.388800 -90.567900  12.617600  -0.003180   0.001349  11.308800  -0.002451   0.000430 -10.073500   3.659100 -19.756500  -8.763580  -0.001231  -0.001096  -6.134470  -0.000842  -0.000923 -13.718100   2.202700  -8.945250 -13.890400  -0.001032  -0.001293  -9.251020  -0.000656  -0.014901 -10.366300   0.397211  -2.165610 -10.373700  -0.000251  -0.000291  -6.908890   0.000352  -0.002027 -18.409200  -5.876100  17.097300 -28.940000  -0.001785  -0.000736 -19.274000  -0.000583  -0.000270   2.333190  -5.739490  12.447400  51.675300 -10.496300  56.569100 -17.270500 -24.090400  73.088400 -10.940700 -27.486700  24.664400 -58.009700  42.105700  82.969100  -4.509350  -0.001209  -0.000105  -7.254690  -0.002537  -0.002284  29.780000   8.675810  14.767100  25.288100   0.006697  -0.001560  17.701700   0.011660  -0.003112  17.486500   1.425400   4.514980  17.543300   0.004944   0.001047  11.683800   0.003992   0.000279  15.538400   1.270840   4.560900  15.589700  -0.000221   0.001116  10.382700   0.009893   0.005750  20.923100  -1.843510  -4.811570  31.502600   0.000909   0.001787  20.980700   0.001478   0.000964   2.970840  17.020700   2.232280   2.275950   0.593410   7.741920  -3.028070  -3.066230   2.775880  -0.000000   0.000000   0.000000   3.788160  12.178200  -3.730350   1.208260   5.939680  -6.367970  -2.985170  -4.932930  -1.418800   0.000000   0.000000  -0.000000
 -1.972370  89.519900  -0.331254  -2.250250 -13.177900   0.117508   2.718240   7.745370  -0.018125   5.515330  15.480900  -0.415775   0.568564  -3.932470   0.039549   0.947723  -7.971900   5.740480  -9.641870  -4.719180  -4.173940 -60.750600   0.444162 -60.046700  -5.101080 -18.656600 -80.631700   0.915585 -28.427000 -10.490600  46.091300  45.365500 -90.533800  12.590900  -0.003323   0.001286  11.295400  -0.002423   0.000444 -10.224000   3.731260 -19.842100  -8.899340  -0.001162  -0.001117  -6.229510  -0.000790  -0.000933 -13.842700   2.237040  -8.989500 -14.018100  -0.000934  -0.001156  -9.336050  -0.000580  -0.014835 -10.489900   0.384503  -2.073990 -10.496700  -0.000441  -0.000458  -6.990820   0.000386  -0.004037 -18.449300  -5.883300  17.090300 -29.001500  -0.001642  -0.000862 -19.315000  -0.000560  -0.000574   2.332430  -5.728900  12.445700  51.507000 -10.470000  56.557200 -17.286600 -24.193700  72.963200 -11.096000 -27.283700  24.549400 -58.135300  42.195700  83.165800  -4.396140  -0.001025  -0.000045  -7.198080  -0.002766  -0.002598  29.600900   8.693870  14.908200  25.146300   0.006324  -0.001651  17.602500   0.011746  -0.003278  17.612500   1.462430   4.596830  17.672200   0.005092   0.001468  11.769700   0.004116   0.000269  15.728700   1.310400   4.642330  15.782900  -0.000005   0.001116  10.511400   0.010345   0.005516  20.954300  -1.795040  -4.681160  31.541000   0.000924   0.001968  21.006300   0.001394   0.000941   2.975800  16.917200   2.240720   2.288920   0.609732   7.725030  -3.052980  -3.067040   2.775970  -0.000000   0.000000   0.000000   3.773540  12.122200  -3.754370   1.227190   5.882310  -6.357350  -2.966450  -4.926720  -1.389830  -0.000000   0.000000  -0.000000
 -1.997730  89.513200  -0.326666  -2.236260 -13.065200   0.121592   2.705970   7.705490  -0.025167   5.490950  15.401000  -0.427199   0.570581  -3.905440   0.039088   0.949938  -7.917040   5.782380  -9.641160  -4.727630  -4.159400 -60.751600   0.314909 -59.962200  -5.086250 -18.791300 -80.673700   0.916201 -28.230900 -10.467200  46.117900  45.320700 -90.468200  12.549800  -0.003459   0.001211  11.274900  -0.002385   0.000463 -10.392600   3.812130 -19.928000  -9.050950  -0.001080  -0.001146  -6.335630  -0.000728  -0.000949 -14.018000   2.267010  -9.004630 -14.196200  -0.000833  -0.001023  -9.454640  -0.000499  -0.014776 -10.673700   0.378230  -2.010170 -10.680000  -0.000627  -0.000648  -7.112920   0.000463  -0.006357 -18.541700  -5.918270  17.084200 -29.147200  -0.001492  -0.000998 -19.412000  -0.000533  -0.000945   2.331160  -5.715500  12.440100  51.377200 -10.427300  56.540700 -17.362600 -24.256300  72.819800 -11.260700 -27.003900  24.454200 -58.295700  42.298300  83.384900  -4.301550  -0.000856  -0.000000  -7.150780  -0.002996  -0.002909  29.518800   8.782420  15.089100  25.106900   0.005967  -0.001744  17.574900   0.011828  -0.003446  17.763000   1.510730   4.704980  17.826400   0.005243   0.001958  11.872400   0.004243   0.000260  15.923000   1.358630   4.750790  15.980700   0.000240   0.001112  10.643100   0.010783   0.005284  21.037700  -1.765250  -4.577710  31.665200   0.000960   0.002146  21.089000   0.001326   0.000938   2.981290  16.809600   2.258770   2.295780   0.616304   7.708330  -3.077370  -3.067160   2.776580   0.000000   0.000000  -0.000000   3.760000  12.055900  -3.779310   1.249430   5.816990  -6.338740  -2.957270  -4.913440  -1.362100  -0.000000   0.000000  -0.000000
